<svg xmlns="http://www.w3.org/2000/svg" viewBox="0 0 32 32"><style>.st0{fill:#ee483e}.st1{fill:#fff}</style><path class="st0" d="M5.1 0L0 32h26.9L32 0H5.1z"/><path class="st1" d="M16.3 25.7c-1.7 0-3-.5-3.9-1.5-.9-1-1.4-2.4-1.5-4.1l2.7-.7c.1 2.7 1 4.1 2.7 4.1 1.4 0 2-.7 2-2 0-.4-.1-.8-.2-1.1-.1-.3-.3-.7-.5-.9-.2-.3-.4-.5-.6-.7-.2-.2-.4-.4-.8-.6L13 15.3c-.6-.5-1.1-1.1-1.5-1.9s-.6-1.6-.6-2.6c0-1.4.4-2.5 1.3-3.3s2-1.2 3.5-1.2 2.8.4 3.7 1.1 1.5 1.8 1.7 3.2c0 .1 0 .4.1.6l-2.7.7c0-.1 0-.3-.1-.5-.1-.9-.4-1.6-.8-2.1s-1-.8-1.8-.8c-.7 0-1.2.2-1.5.5-.4.4-.5.9-.5 1.5 0 1.1.5 2 1.4 2.7l3.4 2.7c1.8 1.5 2.7 3.2 2.7 5.2 0 1.4-.4 2.5-1.3 3.3s-2.2 1.3-3.7 1.3z"/></svg>
