<svg xmlns="http://www.w3.org/2000/svg" viewBox="0 0 180.5 63"><style>.st0{fill:#ff4438}</style><path class="st0" d="M122.3 14h-5.6v33h5.6c4.3 0 6.4-2.4 6.4-7.6V22.1c.1-5.3-2.1-8.1-6.4-8.1zM58.3 14h-6.5v16.1h6.5c1.9 0 3.3-.6 4.1-2 .8-1.3 1.2-3.4 1.2-6.3 0-2.7-.4-4.7-1.3-5.9-.9-1.2-2.2-1.9-4-1.9z"/><path class="st0" d="M10 0L0 63h170.5l10-63H10zm29.2 48.4c-1.7 1.5-3.9 2.2-6.6 2.2-1.4 0-2.6-.3-3.8-.8s-2.1-1.3-2.8-2.2c-.8-.9-1.4-2-1.9-3.1-.5-1.2-.8-2.4-1-3.8l3-.9c.1 1.1.3 2.1.6 3 .3.9.7 1.8 1.2 2.5.5.8 1.2 1.4 2.1 1.9.9.4 1.8.7 2.9.7 1.8 0 3.1-.5 4.1-1.5 1-1 1.4-2.4 1.4-4.1 0-1.5-.4-2.9-1.3-4.3s-2.2-3-3.9-4.8l-6-6.4c-1.3-1.4-2.3-2.7-3-3.9-.7-1.2-1.1-2.5-1.1-3.8 0-2.5.8-4.6 2.5-6.1s3.8-2.3 6.4-2.3c2.5 0 4.6.7 6.1 2.1 1.5 1.4 2.6 3.5 3.1 6.2l.1.4-2.9.9V20c-.3-1.9-1-3.5-2.1-4.7-1.1-1.2-2.5-1.8-4.3-1.8-1.7 0-3.1.4-4.1 1.3-1 .9-1.5 2.1-1.5 3.8 0 1 .3 2 .8 3s1.3 2 2.3 3.1l5.7 6.2c.1.2.5.6 1.1 1.2.6.7 1 1.1 1.2 1.3.2.2.5.6 1 1.2s.8 1.1 1 1.4c.2.3.5.7.8 1.3.3.6.6 1.1.7 1.5.1.4.3.9.4 1.5.1.6.2 1.1.2 1.6.2 2.8-.7 5-2.4 6.5zM66.8 25c-.2 1-.4 2-.9 3s-1 1.8-1.6 2.5c-.7.7-1.5 1.3-2.6 1.8-1.1.4-2.4.7-3.8.7h-6.1v17h-3V11H58c1.3 0 2.5.4 3.6.7 1 .4 1.9 1 2.6 1.6.7.6 1.3 1.4 1.7 2.3s.8 1.9 1 2.9c.2 1 .3 2.1.3 3.2-.1 1.2-.2 2.3-.4 3.3zm20-11h-10v15h7v2h-7v16h10v3h-13V11h13v3zm20 0h-10v15h7v2h-7v16h10v3h-13V11h13v3zm25 24.6c0 7.6-2.9 11.4-9.4 11.4h-8.6V11h8.6c1.5 0 2.8.4 3.9.8s2.1 1 2.8 1.7c.7.7 1.3 1.6 1.8 2.5s.6 2.1.8 3.2c.2 1.1.1 2.4.1 3.7v15.7zm17-.6v12h-4V38l-8.1-27h3.5c.3 1 .7 2.8 1.3 4.7.6 2 1.2 4 1.8 6.1.6 2 1.2 4 1.7 5.9s1 3.4 1.4 4.6l.5 1.8c1-3.5 2.1-7.6 3.3-11.8 1.3-4.3 2.3-8.2 3.2-11.2h3.3L148.8 38z"/></svg>
