<svg xmlns="http://www.w3.org/2000/svg" viewBox="0 0 18.9 19.5"><style>.st0{fill:#ff4438}</style><path class="st0" d="M14.4 14.2c-.2.7-.5 1.3-.9 1.7-.9 1-2.3 1.2-3.9 1.2s-3-.3-3.9-1.2c-.4-.5-.8-1.1-.9-1.7l-2-6.5c-.2-1-.5-1.2-1.5-1.2H1c-1 0-1.2.2-.9 1.2L2 14.8c.3 1.1.8 2 1.6 2.7 1.6 1.6 3.7 2 5.9 2 2.1-.1 4.3-.5 5.9-2 .7-.7 1.3-1.7 1.6-2.7l1.9-7.1c.3-.9.1-1.2-.9-1.2h-.3c-1 0-1.3.2-1.5 1.2l-1.8 6.5zM10.8 5.3v-4c0-.7-.6-1.3-1.3-1.3-.8 0-1.3.6-1.3 1.3v4c0 .9.2 1.1 1.1 1.1h.3c1 .1 1.2-.2 1.2-1.1"/></svg>
